<svg width="693" height="702" viewBox="0 0 693 702" fill="none" xmlns="http://www.w3.org/2000/svg">
<g opacity="0.7">
<ellipse cx="355.267" cy="364.049" rx="152.606" ry="152.705" stroke="#FF4B1F" stroke-width="4"/>
<ellipse cx="355.266" cy="364.049" rx="91.5636" ry="91.623" stroke="#FF4B1F" stroke-width="4"/>
<ellipse cx="355.266" cy="364.049" rx="213.648" ry="213.787" stroke="#FF4B1F" stroke-width="4"/>
<ellipse cx="355.267" cy="364.049" rx="274.691" ry="274.869" stroke="#FF4B1F" stroke-width="4"/>
<ellipse cx="355.267" cy="364.049" rx="335.733" ry="335.951" stroke="#FF4B1F" stroke-width="4"/>
<path d="M665.553 501.47C664.847 502.132 663.904 502.501 662.921 502.501C661.939 502.501 660.996 502.132 660.29 501.47C653.825 495.377 645.162 488.57 649.387 478.687C651.671 473.344 657.155 469.924 662.921 469.924C668.688 469.924 674.172 473.344 676.456 478.687C680.676 488.557 672.034 495.398 665.553 501.47Z" fill="#FF4B1F" stroke="white" stroke-width="2.44328"/>
<path d="M662.92 480.41C665.222 480.41 667.09 482.278 667.09 484.584C667.09 486.89 665.222 488.758 662.92 488.758C660.618 488.758 658.75 486.89 658.75 484.584C658.75 482.278 660.618 480.41 662.92 480.41Z" fill="#FF4B1F" stroke="white" stroke-width="3.0541"/>
<path d="M294.416 299.9C293.71 300.561 292.766 300.931 291.784 300.931C290.802 300.931 289.859 300.561 289.153 299.9C282.688 293.806 274.024 286.999 278.249 277.116C280.534 271.773 286.017 268.354 291.784 268.354C297.551 268.354 303.035 271.773 305.319 277.116C309.539 286.987 300.897 293.827 294.416 299.9Z" fill="#FF4B1F" stroke="white" stroke-width="2.44328"/>
<path d="M291.783 278.84C294.085 278.84 295.953 280.707 295.953 283.014C295.953 285.32 294.085 287.187 291.783 287.187C289.481 287.187 287.613 285.32 287.613 283.014C287.613 280.707 289.48 278.84 291.783 278.84Z" fill="#FF4B1F" stroke="white" stroke-width="3.0541"/>
<path d="M143.97 402.098C143.265 402.759 142.321 403.129 141.339 403.129C140.357 403.129 139.413 402.759 138.707 402.098C132.243 396.004 123.579 389.197 127.804 379.315C130.089 373.971 135.572 370.552 141.339 370.552C147.106 370.552 152.589 373.971 154.874 379.315C159.094 389.185 150.451 396.025 143.97 402.098Z" fill="#FF4B1F" stroke="white" stroke-width="2.44328"/>
<path d="M141.337 381.038C143.639 381.038 145.507 382.906 145.507 385.212C145.507 387.518 143.639 389.386 141.337 389.386C139.035 389.386 137.167 387.518 137.167 385.212C137.167 382.906 139.035 381.038 141.337 381.038Z" fill="#FF4B1F" stroke="white" stroke-width="3.0541"/>
<path d="M634.475 381.51C633.769 382.171 632.826 382.541 631.844 382.541C630.862 382.541 629.918 382.171 629.212 381.51C622.747 375.416 614.084 368.609 618.309 358.726C620.593 353.383 626.077 349.964 631.844 349.964C637.611 349.964 643.094 353.383 645.379 358.726C649.598 368.597 640.956 375.437 634.475 381.51Z" fill="#FF4B1F" stroke="white" stroke-width="2.44328"/>
<path d="M631.842 360.45C634.144 360.45 636.012 362.317 636.012 364.623C636.012 366.929 634.144 368.797 631.842 368.797C629.54 368.797 627.672 366.929 627.672 364.623C627.672 362.317 629.54 360.45 631.842 360.45Z" fill="#FF4B1F" stroke="white" stroke-width="3.0541"/>
<path d="M285.87 34.8037C285.164 35.465 284.22 35.8348 283.238 35.8348C282.256 35.8348 281.313 35.465 280.607 34.8037C274.142 28.7102 265.478 21.903 269.703 12.0204C271.988 6.67692 277.471 3.25769 283.238 3.25769C289.005 3.25769 294.489 6.67692 296.773 12.0204C300.993 21.8906 292.35 28.7312 285.87 34.8037Z" fill="#FF4B1F" stroke="white" stroke-width="2.44328"/>
<path d="M283.237 13.7438C285.539 13.7438 287.407 15.6115 287.407 17.9176C287.407 20.2237 285.539 22.0914 283.237 22.0914C280.935 22.0914 279.067 20.2237 279.067 17.9176C279.067 15.6115 280.935 13.7438 283.237 13.7438Z" fill="#FF4B1F" stroke="white" stroke-width="3.0541"/>
<path d="M22.1665 299.9C21.4607 300.561 20.5171 300.931 19.535 300.931C18.553 300.931 17.6095 300.561 16.9035 299.9C10.4388 293.806 1.7752 286.999 6.00017 277.116C8.28455 271.773 13.7681 268.354 19.535 268.354C25.302 268.354 30.7855 271.773 33.07 277.116C37.2896 286.987 28.6473 293.827 22.1665 299.9Z" fill="#FF4B1F" stroke="white" stroke-width="2.44328"/>
<path d="M19.5334 278.84C21.8357 278.84 23.7034 280.707 23.7034 283.014C23.7033 285.32 21.8356 287.187 19.5334 287.187C17.2313 287.187 15.3636 285.32 15.3635 283.014C15.3635 280.707 17.2312 278.84 19.5334 278.84Z" fill="#FF4B1F" stroke="white" stroke-width="3.0541"/>
<path d="M468.997 470.929C468.291 471.591 467.348 471.96 466.366 471.96C465.384 471.96 464.44 471.591 463.734 470.929C457.269 464.836 448.606 458.029 452.831 448.146C455.115 442.803 460.599 439.383 466.366 439.383C472.133 439.383 477.616 442.803 479.901 448.146C484.12 458.016 475.478 464.857 468.997 470.929Z" fill="#FF4B1F" stroke="white" stroke-width="2.44328"/>
<path d="M466.365 449.869C468.667 449.869 470.534 451.737 470.534 454.043C470.534 456.349 468.667 458.217 466.365 458.217C464.062 458.217 462.195 456.349 462.195 454.043C462.195 451.737 464.062 449.869 466.365 449.869Z" fill="#FF4B1F" stroke="white" stroke-width="3.0541"/>
<path d="M293.195 693.268C292.489 693.929 291.545 694.299 290.563 694.299C289.581 694.299 288.638 693.929 287.932 693.268C281.467 687.174 272.803 680.367 277.028 670.485C279.313 665.141 284.796 661.722 290.563 661.722C296.33 661.722 301.814 665.141 304.098 670.485C308.318 680.355 299.675 687.195 293.195 693.268Z" fill="#FF4B1F" stroke="white" stroke-width="2.44328"/>
<path d="M290.562 672.208C292.864 672.208 294.732 674.076 294.732 676.382C294.732 678.688 292.864 680.556 290.562 680.556C288.26 680.556 286.392 678.688 286.392 676.382C286.392 674.076 288.26 672.208 290.562 672.208Z" fill="#FF4B1F" stroke="white" stroke-width="3.0541"/>
<path d="M552.015 93.4425C551.31 94.1038 550.366 94.4736 549.384 94.4736C548.402 94.4736 547.458 94.1038 546.752 93.4425C540.288 87.349 531.624 80.5418 535.849 70.6592C538.133 65.3157 543.617 61.8965 549.384 61.8965C555.151 61.8965 560.634 65.3157 562.919 70.6592C567.138 80.5294 558.496 87.37 552.015 93.4425Z" fill="#FF4B1F" stroke="white" stroke-width="2.44328"/>
<path d="M549.382 72.3826C551.684 72.3826 553.552 74.2503 553.552 76.5564C553.552 78.8625 551.684 80.7302 549.382 80.7302C547.08 80.7302 545.212 78.8624 545.212 76.5564C545.212 74.2503 547.08 72.3826 549.382 72.3826Z" fill="#FF4B1F" stroke="white" stroke-width="3.0541"/>
</g>
</svg>
